<?xml version='1.0' encoding='iso-8859-1'?>
<!DOCTYPE svg PUBLIC '-//W3C//DTD SVG 1.1//EN' 'http://www.w3.org/Graphics/SVG/1.1/DTD/svg11.dtd'>
<!-- Uploaded to: SVG Repo, www.svgrepo.com, Generator: SVG Repo Mixer Tools -->
<svg fill="#000000" height="800px" width="800px" version="1.1" xmlns="http://www.w3.org/2000/svg" viewBox="0 0 297 297" xmlns:xlink="http://www.w3.org/1999/xlink" enable-background="new 0 0 297 297">
  <g>
    <path d="m294.321,129.816l-140.256-126.371c-3.079-2.774-7.757-2.776-10.838-0.006l-140.543,126.371c-2.494,2.244-3.348,5.792-2.147,8.925 1.202,3.133 4.208,5.2 7.564,5.2h23.944l111.125-98.928c3.098-2.837 7.85-2.839 10.947,0.001l111.117,98.927h23.664c3.354,0 6.36-2.065 7.563-5.196 1.203-3.131 0.351-6.678-2.14-8.923z"/>
    <path d="m172.971,149.57c0-13.4-10.902-24.303-24.303-24.303-13.399,0-24.302,10.902-24.302,24.303v11.897h48.604v-11.897z"/>
    <path d="m107.659,245.007h82.019v-65.313h-82.019v65.313zm41.01-52.148c6.98,0 12.658,5.678 12.658,12.657 0,3.4-1.354,6.486-3.545,8.764v11.994c0,5.033-4.08,9.113-9.113,9.113s-9.113-4.08-9.113-9.113v-11.996c-2.188-2.276-3.543-5.362-3.543-8.762-0.001-6.98 5.677-12.657 12.656-12.657z"/>
    <path d="m42.077,156.72v130.816c0,4.473 3.627,8.101 8.101,8.101h196.928c4.473,0 8.101-3.628 8.101-8.101v-130.816l-106.563-94.752-106.567,94.752zm149.121-7.15v11.897h7.594c5.034,0 9.113,4.08 9.113,9.113v83.539c0,5.033-4.079,9.113-9.113,9.113h-100.246c-5.033,0-9.113-4.08-9.113-9.113v-83.539c0-5.033 4.08-9.113 9.113-9.113h7.595v-11.897c0-23.451 19.078-42.529 42.528-42.529 23.451,0 42.529,19.078 42.529,42.529z"/>
  </g>
</svg>